<svg width="1000" height="1000" viewBox="0 0 1000 1000" fill="none" xmlns="http://www.w3.org/2000/svg">
<g clip-path="url(#clip0_4_2)">
<path d="M326.802 155.715C329.189 155.574 331.553 155.478 333.935 155.76C340.989 156.591 346.491 161.034 350.737 166.487C375.347 198.084 373.159 304.37 370.231 345.236C369.466 355.912 367.956 366.536 366.578 377.149C392.35 367.837 408.683 359.521 437.686 355.305C494.758 347.01 555.053 349.042 610.157 367.219C616.003 369.148 629.273 374.09 633.748 377.292C632.136 370.989 631.12 354.452 630.707 346.85C627.999 293.527 625.788 236.212 640.15 184.342C645.906 163.553 661.701 149.047 683.866 158.136C703.347 166.123 719.877 187.327 731.029 204.549C781.41 282.459 790.758 379.767 789.89 470.433C789.667 493.567 785.675 522.338 786.696 545.422C786.856 549.029 796.952 568.671 799.156 573.808C818.283 618.397 824.526 672.843 807.07 718.911C769.656 806.223 650.113 833.367 564.627 841.082C388.131 857.011 101.067 813.696 205.074 563.606C207.021 558.924 214.769 546.437 214.502 543.109C204.86 422.859 206.69 281.406 285.656 182.62C293.663 172.608 311.241 156.955 326.802 155.715ZM638.659 720.76C716.109 704.712 721.434 551.565 661.354 511.129C653.521 505.858 640.108 502.033 630.75 503.016C628.012 503.283 624.048 503.542 621.473 504.292C541.036 527.701 549.165 723.051 638.659 720.76ZM375.602 719.332C406.245 711.568 425.327 675.131 431.229 645.522C440.206 600.501 432.736 537.241 391.307 509.431C381.424 502.796 370.328 502.477 358.883 502.922C304.468 512.6 291.405 601.977 301.568 646.325C309.548 681.154 332.868 726.337 375.602 719.332Z" fill="black"/>
</g>
<defs>
<clipPath id="clip0_4_2">
<rect width="1000" height="1000" fill="white"/>
</clipPath>
</defs>
</svg>
