<svg width="26" height="25" viewBox="0 0 26 25" fill="none" xmlns="http://www.w3.org/2000/svg">
<path fill-rule="evenodd" clip-rule="evenodd" d="M12.413 20.3615L7.4621 23.3945C6.9473 23.7098 6.27431 23.5482 5.95894 23.0333C5.80491 22.7819 5.75899 22.4789 5.8316 22.1931L6.598 19.1766C6.87465 18.0876 7.61981 17.1774 8.63265 16.6911L14.0338 14.0979C14.2857 13.977 14.3918 13.6749 14.2709 13.4231C14.173 13.2191 13.9516 13.105 13.7287 13.1436L7.71644 14.1845C6.49429 14.3961 5.24099 14.0586 4.29035 13.2619L2.39103 11.6702C1.92831 11.2825 1.86756 10.593 2.25533 10.1303C2.44393 9.90525 2.71514 9.76553 3.00787 9.74262L8.81084 9.28849C9.2208 9.2564 9.57808 8.99696 9.73546 8.61705L11.9741 3.21302C12.2052 2.65527 12.8447 2.39042 13.4024 2.62148C13.6702 2.73243 13.883 2.94521 13.9939 3.21302L16.2326 8.61705C16.39 8.99696 16.7473 9.2564 17.1572 9.28849L22.9921 9.74512C23.594 9.79222 24.0437 10.3183 23.9966 10.9202C23.974 11.2097 23.837 11.4783 23.616 11.6668L19.166 15.4605C18.8527 15.7275 18.7161 16.148 18.8124 16.5482L20.1805 22.2314C20.3218 22.8184 19.9605 23.4087 19.3735 23.55C19.0915 23.6179 18.794 23.5709 18.5467 23.4194L13.5551 20.3615C13.2046 20.1468 12.7634 20.1468 12.413 20.3615Z" fill="url(#paint0_linear_24_137)" stroke="url(#paint1_linear_24_137)" stroke-width="1.22222"/>
<defs>
<linearGradient id="paint0_linear_24_137" x1="0.0870911" y1="28.1529" x2="41.4" y2="-18.3997" gradientUnits="userSpaceOnUse">
<stop stop-color="#FDEB32"/>
<stop offset="0.439058" stop-color="#FEBD04"/>
<stop offset="1" stop-color="#D75902"/>
</linearGradient>
<linearGradient id="paint1_linear_24_137" x1="27.0556" y1="3.61114" x2="9.33333" y2="15.8333" gradientUnits="userSpaceOnUse">
<stop stop-color="#DB5A00"/>
<stop offset="1" stop-color="#FF9145"/>
</linearGradient>
</defs>
</svg>
